<svg width="24" height="24" viewBox="0 0 24 24" xmlns="http://www.w3.org/2000/svg">
<path d="M16 10.2C16 10.697 15.5523 11.1 15 11.1C14.4477 11.1 14 10.697 14 10.2C14 9.70293 14.4477 9.29999 15 9.29999C15.5523 9.29999 16 9.70293 16 10.2Z" fill="#fff"/>
<path d="M16 13.8C16 14.297 15.5523 14.7 15 14.7C14.4477 14.7 14 14.297 14 13.8C14 13.3029 14.4477 12.9 15 12.9C15.5523 12.9 16 13.3029 16 13.8Z" fill="#fff"/>
<path fill-rule="evenodd" clip-rule="evenodd" d="M21 3H3V21H21V3ZM6 7.5H12V9.5H10V16.5H8V9.5H6V7.5ZM18 10.2C18 10.8915 17.7111 11.5223 17.2361 12C17.7111 12.4777 18 13.1085 18 13.8C18 15.2912 16.6569 16.5 15 16.5C13.3431 16.5 12 15.2912 12 13.8C12 13.1085 12.2889 12.4777 12.7639 12C12.2889 11.5223 12 10.8915 12 10.2C12 8.70883 13.3431 7.5 15 7.5C16.6569 7.5 18 8.70883 18 10.2Z" fill="#fff"/>
</svg>
